<?xml version="1.0" encoding="UTF-8"?>
<svg version="1.1" xmlns="http://www.w3.org/2000/svg" width="256" height="256">
<path d="M0 0 C1.05823353 -0.00551503 1.05823353 -0.00551503 2.13784552 -0.01114148 C4.50201997 -0.0221549 6.86615044 -0.02601823 9.23034668 -0.02983093 C10.9257318 -0.03609754 12.62111555 -0.04274452 14.3164978 -0.04974365 C19.88607835 -0.07076963 25.45565912 -0.08114728 31.02526855 -0.09111023 C32.94549066 -0.09515886 34.86571263 -0.09927582 36.78593445 -0.10346031 C45.81159656 -0.12251176 54.83725052 -0.13674076 63.86292887 -0.14507228 C74.26455819 -0.15483343 84.66597408 -0.18112381 95.06752825 -0.22157317 C103.11698853 -0.25179572 111.16638787 -0.26654712 119.21590376 -0.26985329 C124.01850834 -0.27219751 128.82088489 -0.28107535 133.62342834 -0.30631447 C138.1477456 -0.32970667 142.67168653 -0.33378392 147.19604874 -0.32355309 C148.84873333 -0.32306025 150.50143716 -0.3293055 152.15406418 -0.34310913 C168.39524779 -0.47107699 181.49398821 3.3705997 193.99401855 14.14717102 C202.47440047 23.91245929 208.09721763 35.14864668 208.14118958 48.15315247 C208.14486626 48.85864149 208.14854295 49.56413051 208.15233105 50.29099798 C208.16334447 52.65517244 208.1672078 55.0193029 208.17102051 57.38349915 C208.17728712 59.07888426 208.18393409 60.77426801 208.19093323 62.46965027 C208.2119592 68.03923082 208.22233685 73.60881159 208.2322998 79.17842102 C208.23634844 81.09864313 208.24046539 83.0188651 208.24464989 84.93908691 C208.26370134 93.96474903 208.27793033 102.99040298 208.28626186 112.01608133 C208.29602301 122.41771066 208.32231339 132.81912655 208.36276275 143.22068071 C208.39298529 151.270141 208.4077367 159.31954033 208.41104287 167.36905622 C208.41338709 172.1716608 208.42226493 176.97403736 208.44750404 181.77658081 C208.47089624 186.30089807 208.47497349 190.82483899 208.46474266 195.3492012 C208.46424983 197.0018858 208.47049508 198.65458962 208.48429871 200.30721664 C208.61226656 216.54840025 204.77058988 229.64714068 193.99401855 242.14717102 C184.22873029 250.62755294 172.9925429 256.25037009 159.98803711 256.29434204 C159.28254809 256.29801873 158.57705907 256.30169542 157.85019159 256.30548352 C155.48601714 256.31649694 153.12188667 256.32036027 150.75769043 256.32417297 C149.06230531 256.33043958 147.36692156 256.33708656 145.67153931 256.34408569 C140.10195875 256.36511167 134.53237799 256.37548932 128.96276855 256.38545227 C127.04254645 256.3895009 125.12232448 256.39361786 123.20210266 256.39780235 C114.17644055 256.4168538 105.15078659 256.4310828 96.12510824 256.43941432 C85.72347892 256.44917547 75.32206303 256.47546585 64.92050886 256.51591522 C56.87104858 256.54613776 48.82164924 256.56088916 40.77213335 256.56419533 C35.96952877 256.56653955 31.16715222 256.5754174 26.36460876 256.60065651 C21.84029151 256.62404871 17.31635058 256.62812596 12.79198837 256.61789513 C11.13930378 256.61740229 9.48659995 256.62364754 7.83397293 256.63745117 C-8.40721068 256.76541903 -21.5059511 252.92374235 -34.00598145 242.14717102 C-42.48636336 232.38188275 -48.10918052 221.14569536 -48.15315247 208.14118958 C-48.15682915 207.43570055 -48.16050584 206.73021153 -48.16429394 206.00334406 C-48.17530736 203.6391696 -48.17917069 201.27503914 -48.1829834 198.9108429 C-48.18925001 197.21545778 -48.19589698 195.52007403 -48.20289612 193.82469177 C-48.2239221 188.25511122 -48.23429974 182.68553045 -48.2442627 177.11592102 C-48.24831133 175.19569891 -48.25242828 173.27547694 -48.25661278 171.35525513 C-48.27566423 162.32959301 -48.28989322 153.30393906 -48.29822475 144.27826071 C-48.3079859 133.87663138 -48.33427628 123.47521549 -48.37472564 113.07366133 C-48.40494818 105.02420104 -48.41969959 96.97480171 -48.42300576 88.92528582 C-48.42534998 84.12268124 -48.43422782 79.32030468 -48.45946693 74.51776123 C-48.48285913 69.99344397 -48.48693638 65.46950305 -48.47670555 60.94514084 C-48.47621272 59.29245624 -48.48245797 57.63975242 -48.4962616 55.9871254 C-48.62422945 39.74594179 -44.78255277 26.64720136 -34.00598145 14.14717102 C-24.24069318 5.6667891 -13.00450579 0.04397195 0 0 Z " fill="#F1DCEF" transform="translate(48.0059814453125,-0.1471710205078125)"/>
<path d="M0 0 C10.47153024 7.67325577 18.0280783 17.76471715 20.171875 30.75 C21.15960762 40.15432748 20.75184033 48.48315937 16.76171875 57.140625 C15.23902118 60.17872601 15.23902118 60.17872601 15.69921875 62.765625 C16.33707029 64.39371165 16.33707029 64.39371165 17.44921875 65.390625 C18.69703125 65.49375 19.94484375 65.596875 21.23046875 65.703125 C28.82915292 67.32883397 33.80096979 73.97891959 38.94921875 79.390625 C40.05440265 80.52238517 41.16116173 81.65260942 42.26953125 82.78125 C51.21934348 91.95390458 51.21934348 91.95390458 51.94921875 96.515625 C51.22904301 102.09698701 48.29867928 104.5098043 44.44921875 108.390625 C43.73185547 109.30134766 43.73185547 109.30134766 43 110.23046875 C40.40627747 113.38901338 38.17840135 114.87430809 34.0625 115.29296875 C26.5764448 115.08992475 21.96639473 109.28565042 17.12353516 104.20385742 C15.45427603 102.4584131 13.74423721 100.76284791 12.0234375 99.06835938 C6.19465536 93.19185484 2.55651527 88.8251102 1.44921875 80.390625 C-0.35178236 78.99744819 -0.35178236 78.99744819 -2.55078125 78.390625 C-5.55560546 79.24488783 -5.55560546 79.24488783 -8.61328125 80.765625 C-14.29142296 83.390625 -14.29142296 83.390625 -17.55078125 83.390625 C-17.55078125 89.990625 -17.55078125 96.590625 -17.55078125 103.390625 C-15.90078125 103.720625 -14.25078125 104.050625 -12.55078125 104.390625 C-8.77010367 106.91107672 -6.59114612 109.35035576 -4.55078125 113.390625 C-3.72612395 118.91062838 -3.80253069 123.8386979 -6.23828125 128.890625 C-10.20929618 133.18361411 -14.26417759 137.09018617 -20.27346325 137.63951397 C-21.32300843 137.6389692 -22.37255362 137.63842443 -23.4539032 137.63786316 C-24.66118073 137.64205765 -25.86845825 137.64625214 -27.11231995 137.65057373 C-28.4468697 137.64509065 -29.78141865 137.63940768 -31.1159668 137.63354492 C-32.52378426 137.63461804 -33.9316013 137.63655717 -35.3394165 137.63929749 C-39.15941656 137.64414285 -42.97929973 137.63649498 -46.79928565 137.62634444 C-50.79333854 137.61756318 -54.78738779 137.61932137 -58.78144836 137.6197052 C-65.4855851 137.61876887 -72.18967656 137.61008742 -78.89379883 137.59643555 C-86.65439863 137.58069115 -94.4149489 137.57543812 -102.17556351 137.5761711 C-109.63359307 137.57678046 -117.09160643 137.57168468 -124.54963112 137.56337929 C-127.72785379 137.55984095 -130.90607073 137.55801526 -134.08429527 137.55748558 C-137.82136232 137.55648437 -141.55838744 137.55040607 -145.29544067 137.54031944 C-146.6705328 137.53738791 -148.04562974 137.53617039 -149.42072487 137.53674698 C-151.2900245 137.53723438 -153.15932236 137.53098805 -155.02861023 137.52433777 C-156.07702434 137.52266192 -157.12543844 137.52098608 -158.20562267 137.51925945 C-160.55078125 137.390625 -160.55078125 137.390625 -161.55078125 136.390625 C-161.67578125 133.890625 -161.67578125 133.890625 -161.55078125 131.390625 C-159.96805524 129.80789899 -158.17044122 130.04326753 -155.98828125 129.828125 C-155.16199219 129.74433594 -154.33570313 129.66054687 -153.484375 129.57421875 C-152.84628906 129.51363281 -152.20820313 129.45304688 -151.55078125 129.390625 C-151.63457031 128.76414063 -151.71835938 128.13765625 -151.8046875 127.4921875 C-151.90652344 126.67492187 -152.00835937 125.85765625 -152.11328125 125.015625 C-152.21769531 124.20351562 -152.32210937 123.39140625 -152.4296875 122.5546875 C-152.55078125 120.390625 -152.55078125 120.390625 -151.55078125 118.390625 C-154.3427033 118.33681922 -157.13359535 118.29704831 -159.92578125 118.265625 C-161.116875 118.24048828 -161.116875 118.24048828 -162.33203125 118.21484375 C-164.4057014 118.19727027 -166.47961366 118.28727332 -168.55078125 118.390625 C-170.93072493 120.33394832 -170.93072493 120.33394832 -170.80078125 123.890625 C-170.93072493 127.44730168 -170.93072493 127.44730168 -168.55078125 129.390625 C-168.92578125 132.015625 -168.92578125 132.015625 -169.55078125 134.390625 C-173.2154218 133.8954033 -175.25910479 133.3698044 -177.55078125 130.390625 C-178.78500444 126.68795542 -179.01316131 123.24379219 -178.55078125 119.390625 C-177.99390625 118.359375 -177.43703125 117.328125 -176.86328125 116.265625 C-176.43015625 115.316875 -175.99703125 114.368125 -175.55078125 113.390625 C-176.47940317 111.35650079 -177.48831598 109.35815328 -178.55078125 107.390625 C-178.99984825 104.5299019 -178.8356692 102.33446714 -178.55078125 99.390625 C-177.55690791 98.05271859 -176.55809205 96.71844378 -175.55078125 95.390625 C-176.22596579 92.78592169 -176.22596579 92.78592169 -177.55078125 90.390625 C-178.74289563 86.81428187 -178.81004699 84.14997817 -178.55078125 80.390625 C-178.01453125 79.50375 -177.47828125 78.616875 -176.92578125 77.703125 C-176.47203125 76.94 -176.01828125 76.176875 -175.55078125 75.390625 C-176.21744792 73.22395833 -176.21744792 73.22395833 -177.55078125 71.390625 C-179.13308998 66.64369882 -179.28054309 62.27942034 -177.48828125 57.640625 C-174.31935236 53.96057855 -170.87304591 51.74403304 -166.07861328 51.0144043 C-163.17670636 50.86300728 -160.30031187 50.83616571 -157.39453125 50.859375 C-156.3334314 50.8555481 -155.27233154 50.85172119 -154.17907715 50.84777832 C-151.94343106 50.84506546 -149.70775289 50.8523826 -147.47216797 50.86914062 C-144.06145066 50.890558 -140.65283974 50.86931637 -137.2421875 50.84375 C-135.06379746 50.84639339 -132.88540873 50.85151858 -130.70703125 50.859375 C-129.18644104 50.84722961 -129.18644104 50.84722961 -127.63513184 50.83483887 C-121.40583894 50.91683427 -117.67509187 51.79468019 -112.55078125 55.390625 C-112.09703125 54.71 -111.64328125 54.029375 -111.17578125 53.328125 C-104.6739456 46.0522613 -96.76540221 42.21106982 -87.55078125 39.390625 C-87.96070312 38.79894531 -88.370625 38.20726562 -88.79296875 37.59765625 C-89.33179687 36.80746094 -89.870625 36.01726562 -90.42578125 35.203125 C-90.95945312 34.42582031 -91.493125 33.64851563 -92.04296875 32.84765625 C-95.18097004 27.73417746 -95.91472607 23.40634107 -95.92578125 17.453125 C-95.95027344 16.76283203 -95.97476563 16.07253906 -96 15.36132812 C-96.02934779 10.20100757 -94.77866982 7.35665142 -91.55078125 3.390625 C-88.27497992 0.62439277 -86.31863455 -0.51339334 -82.05078125 -1.046875 C-78.27817946 -0.57529978 -75.8787004 0.61573479 -72.55078125 2.390625 C-68.65069134 2.75341907 -68.65069134 2.75341907 -66.23828125 0.890625 C-61.91999388 -1.5195819 -58.03834878 -1.01772687 -53.36328125 0.265625 C-48.12698688 0.43730678 -44.83817043 -1.67025132 -40.3203125 -4.1640625 C-28.06153146 -10.56145176 -11.08348606 -6.99294985 0 0 Z " fill="#080705" transform="translate(201.55078125,102.609375)"/>
<path d="M0 0 C4.56250478 3.69752992 7.70350976 8.29971216 10.6875 13.3125 C11.05101562 13.91449219 11.41453125 14.51648438 11.7890625 15.13671875 C15.74549911 23.36388834 14.91058921 35.79964333 12.125 44.3125 C7.57126538 54.84201268 -0.05261823 62.32228649 -10.625 66.625 C-20.46070551 70.28443831 -29.83572174 70.74293721 -39.68359375 66.62890625 C-50.40190371 61.26178819 -57.07977394 54.12784397 -61.75 43.0625 C-64.80781113 33.69050746 -64.43451007 23.92770018 -60.640625 14.84375 C-55.23542366 4.54207215 -46.67476458 -3.55271927 -35.57421875 -7.26953125 C-22.50962258 -9.68388667 -11.02792229 -7.38702429 0 0 Z " fill="#EFDC63" transform="translate(201.3125,110.6875)"/>
<path d="M0 0 C1.10408203 0.01353516 1.10408203 0.01353516 2.23046875 0.02734375 C4.0287888 0.05069856 5.82693911 0.08656164 7.625 0.125 C7.97691406 1.17558594 8.32882813 2.22617188 8.69140625 3.30859375 C13.54328398 17.30715332 20.15639407 27.54610703 33.8125 34.4375 C39.80846114 36.92337001 46.2270993 37.37961351 52.625 38.125 C53.12 50.005 53.12 50.005 53.625 62.125 C58.08 64.105 58.08 64.105 62.625 66.125 C65.51180023 68.80057094 66.4670725 70.19717593 67.125 74.0625 C66.48934571 77.95588254 65.11166337 80.08574477 62.625 83.125 C59.16313982 85.4445038 56.11931583 85.36745983 52.02050781 85.35205078 C51.36643448 85.35234283 50.71236115 85.35263489 50.03846741 85.35293579 C47.88488317 85.35154676 45.73164851 85.33600608 43.578125 85.3203125 C42.08168731 85.31658084 40.58524717 85.31373459 39.08880615 85.31173706 C35.1563641 85.3041126 31.22407053 85.28447438 27.29168701 85.2623291 C23.27650969 85.24184506 19.2613083 85.23272988 15.24609375 85.22265625 C7.37232781 85.2012273 -0.50131761 85.16710576 -8.375 85.125 C-8.34019531 84.31675781 -8.30539063 83.50851563 -8.26953125 82.67578125 C-8.24246094 81.60714844 -8.21539062 80.53851563 -8.1875 79.4375 C-8.15269531 78.38175781 -8.11789063 77.32601562 -8.08203125 76.23828125 C-8.40833385 72.77077232 -9.38469875 70.94067552 -11.375 68.125 C-10.88644531 67.57972656 -10.39789063 67.03445312 -9.89453125 66.47265625 C-8.04104934 63.60905052 -8.002687 61.94423483 -8.0625 58.5625 C-8.06830078 57.13744141 -8.06830078 57.13744141 -8.07421875 55.68359375 C-8.20698905 52.88544095 -8.20698905 52.88544095 -10.375 50.125 C-10.02894389 47.84102968 -9.40795481 46.19090963 -8.375 44.125 C-7.85032693 39.2653232 -7.61936429 35.37570737 -10.1875 31.125 C-13.43222228 28.15839677 -15.48334082 26.88573795 -19.82421875 26.7109375 C-20.67177734 26.67226562 -21.51933594 26.63359375 -22.39257812 26.59375 C-23.27365234 26.5628125 -24.15472656 26.531875 -25.0625 26.5 C-25.95517578 26.46132812 -26.84785156 26.42265625 -27.76757812 26.3828125 C-29.9698462 26.28859782 -32.17210722 26.20298412 -34.375 26.125 C-33.78711604 17.6052047 -30.74395421 13.82654883 -24.375 8.125 C-16.59310962 2.46332526 -9.58909384 -0.22542174 0 0 Z " fill="#C2835A" transform="translate(124.375,147.875)"/>
<path d="M0 0 C2.70567626 1.82339052 4.53728718 3.07457436 6 6 C6.79951668 14.40697821 5.27715636 22.59006983 3.65625 30.79980469 C3.24715678 32.88952366 2.86511536 34.98307676 2.484375 37.078125 C2.22556801 38.42478952 1.96520685 39.77115649 1.703125 41.1171875 C1.47270508 42.31972168 1.24228516 43.52225586 1.00488281 44.76123047 C-0.09397357 48.30287982 -1.46471777 50.3218245 -4 53 C-6.43954658 54.21977329 -8.15305849 54.20153813 -10.875 54.25 C-11.73867187 54.27578125 -12.60234375 54.3015625 -13.4921875 54.328125 C-16.48225103 53.93690173 -17.83879275 53.07073811 -20 51 C-20 50.34 -20 49.68 -20 49 C-23.98731094 52.8765523 -27.63496329 56.96423094 -31.25 61.1875 C-32.39780356 62.518776 -33.54624385 63.84950328 -34.6953125 65.1796875 C-35.25508789 65.82776367 -35.81486328 66.47583984 -36.39160156 67.14355469 C-38.61954547 69.71509165 -40.86405831 72.26986721 -43.125 74.8125 C-43.80820313 75.58207031 -44.49140625 76.35164063 -45.1953125 77.14453125 C-48.21075525 80.24482412 -50.44499046 81.35603564 -54.6875 81.5625 C-61.10407952 81.38682996 -63.70109476 78.42512526 -68 74 C-70.14613639 71.97761118 -72.32482783 69.99106669 -74.5 68 C-75.62149701 66.96397803 -76.74259844 65.92752765 -77.86328125 64.890625 C-80.45877644 62.49622787 -83.05768685 60.10677244 -85.6875 57.75 C-86.28949219 57.20859375 -86.89148438 56.6671875 -87.51171875 56.109375 C-88.95787839 54.8007865 -88.95787839 54.8007865 -91 55 C-92.24202982 56.529401 -92.24202982 56.529401 -93.43359375 58.55859375 C-94.15047363 59.71222412 -94.15047363 59.71222412 -94.88183594 60.88916016 C-95.65188965 62.15058838 -95.65188965 62.15058838 -96.4375 63.4375 C-97.53431208 65.20495122 -98.63198417 66.97186902 -99.73046875 68.73828125 C-100.2826709 69.6298291 -100.83487305 70.52137695 -101.40380859 71.43994141 C-103.64238357 75.03028972 -105.94050643 78.58001271 -108.25 82.125 C-112.19528958 88.19827512 -116.11299132 94.28871028 -120.01538086 100.38964844 C-121.41321263 102.57480195 -122.81244699 104.75905891 -124.21313477 106.94238281 C-127.1215025 111.47869603 -130.02375556 116.01598481 -132.84765625 120.60546875 C-133.25290527 121.25749268 -133.6581543 121.9095166 -134.07568359 122.58129883 C-135.09370932 124.22368684 -136.10018652 125.87321861 -137.10546875 127.5234375 C-139.61651984 130.8059249 -142.11681342 132.44570357 -146.0703125 133.609375 C-151.55326493 133.9846341 -154.36974343 132.36859287 -158.625 128.9375 C-162.33516241 125.64015121 -165.90306741 122.21793858 -169.35546875 118.65234375 C-171.00841603 116.99154399 -172.72251638 115.46377609 -174.5 113.9375 C-178.69581385 110.30555046 -182.79427328 106.57266727 -186.875 102.8125 C-187.87563477 101.90262329 -187.87563477 101.90262329 -188.89648438 100.97436523 C-189.52619141 100.39114502 -190.15589844 99.8079248 -190.8046875 99.20703125 C-191.37171387 98.6860083 -191.93874023 98.16498535 -192.52294922 97.62817383 C-195.65994727 94.1702168 -196.58319896 90.80092615 -196.43359375 86.1015625 C-195.59098274 82.01755599 -193.3344153 79.40132789 -190 77 C-186.85669236 75.69323165 -184.3570892 75.44419053 -181 76 C-174.98073714 78.66157881 -170.47063165 83.29861137 -165.97265625 87.984375 C-161.02035101 93.04455224 -155.45673798 97.49819117 -150 102 C-149.73823975 101.28553711 -149.47647949 100.57107422 -149.20678711 99.83496094 C-147.94464426 96.86995937 -146.4394052 94.34631058 -144.69140625 91.640625 C-144.03253418 90.61622314 -143.37366211 89.59182129 -142.69482422 88.53637695 C-141.99115723 87.45187256 -141.28749023 86.36736816 -140.5625 85.25 C-139.83051162 84.11507267 -139.09890676 82.97989789 -138.36767578 81.84448242 C-136.25041033 78.55955299 -134.12581754 75.27940223 -132 72 C-130.9960373 70.4492553 -129.99212327 68.89847908 -128.98828125 67.34765625 C-127.6919372 65.34522953 -126.39496997 63.34323211 -125.09521484 61.34301758 C-122.51237863 57.36223457 -119.95991513 53.36355017 -117.42578125 49.3515625 C-116.80590332 48.37147217 -116.18602539 47.39138184 -115.54736328 46.3815918 C-114.34358241 44.47605313 -113.14255136 42.56877338 -111.94482422 40.65942383 C-102.25276092 25.32279509 -102.25276092 25.32279509 -97 22 C-90.62486313 21.28022648 -88.25000162 22.11205727 -83 26 C-80.44815049 28.07036196 -77.99653946 30.2304694 -75.5625 32.4375 C-74.91345703 32.99759766 -74.26441406 33.55769531 -73.59570312 34.13476562 C-71.88589952 35.68863805 -70.35432439 37.12751961 -69 39 C-69.08984375 41.91015625 -69.08984375 41.91015625 -70 44 C-75.52544526 43.66537185 -78.10597864 41.50467806 -81.6875 37.5625 C-86.65406818 31.82114873 -86.65406818 31.82114873 -93.6875 29.875 C-94.780625 29.91625 -95.87375 29.9575 -97 30 C-97.21398437 30.64453125 -97.42796875 31.2890625 -97.6484375 31.953125 C-99.52915378 36.19289003 -102.0637457 39.89268931 -104.625 43.75 C-105.80946676 45.55281214 -106.993019 47.35622538 -108.17578125 49.16015625 C-108.80049316 50.11164551 -109.42520508 51.06313477 -110.06884766 52.04345703 C-113.35154742 57.06918323 -116.58118869 62.12864051 -119.8125 67.1875 C-120.47499756 68.22269775 -121.13749512 69.25789551 -121.82006836 70.32446289 C-124.98780344 75.27611896 -128.14938706 80.23152544 -131.29530334 85.19706726 C-132.38718454 86.91974601 -133.48079122 88.6413167 -134.57495117 90.36254883 C-135.94840249 92.52423074 -137.3185432 94.68802089 -138.68481445 96.85424805 C-141.86515713 101.85345579 -145.05600576 106.57337549 -149 111 C-152.66910998 110.431775 -154.24478235 109.05620402 -156.75 106.375 C-159.9657225 103.03491254 -163.26626668 99.93990708 -166.796875 96.9375 C-168.47389729 95.46267189 -170.10097771 93.93084246 -171.703125 92.375 C-172.64671875 91.4675 -173.5903125 90.56 -174.5625 89.625 C-175.43003906 88.77164063 -176.29757813 87.91828125 -177.19140625 87.0390625 C-180.53289113 84.61311659 -182.91170977 84.18830913 -187 84 C-188.29524348 85.09354906 -188.29524348 85.09354906 -188.375 87.75 C-187.86688422 92.15367011 -186.3189535 93.09591569 -183 96 C-181.72279903 97.2853707 -180.45247211 98.5775927 -179.1875 99.875 C-176.020993 103.041507 -172.74886668 106.01432327 -169.35546875 108.93359375 C-166.23052563 111.67504468 -163.17753462 114.49090683 -160.125 117.3125 C-159.55305908 117.84069336 -158.98111816 118.36888672 -158.3918457 118.91308594 C-156.230577 120.91386599 -154.08277182 122.91722818 -152 125 C-148.66962173 125.87180844 -148.66962173 125.87180844 -145 125 C-142.46201836 122.54621297 -140.83105466 119.59752569 -139.0625 116.5625 C-137.92493163 114.71326325 -136.78688922 112.86431806 -135.6484375 111.015625 C-135.05514648 110.03271484 -134.46185547 109.04980469 -133.85058594 108.03710938 C-130.72226395 102.90302949 -127.4442506 97.86566755 -124.1875 92.8125 C-122.83747741 90.70380598 -121.48853113 88.59442252 -120.140625 86.484375 C-119.12452148 84.89399414 -119.12452148 84.89399414 -118.08789062 83.27148438 C-116.30896148 80.4841071 -114.53196995 77.69551716 -112.75627136 74.90608215 C-111.67913122 73.21452031 -110.6009217 71.52363956 -109.52270508 69.83276367 C-108.17691755 67.7221415 -106.83287584 65.61040464 -105.4909668 63.49731445 C-101.4834593 57.21579891 -97.32549039 51.06699719 -93 45 C-89.11055702 45.52768805 -87.05598689 46.42144142 -84.19140625 49.08984375 C-83.50449707 49.72132324 -82.81758789 50.35280273 -82.10986328 51.00341797 C-81.06548096 51.99172607 -81.06548096 51.99172607 -80 53 C-79.33081543 53.62148926 -78.66163086 54.24297852 -77.97216797 54.88330078 C-75.27068019 57.40079037 -72.59204824 59.94203624 -69.91210938 62.48242188 C-68.58931083 63.73066035 -67.26049857 64.97256152 -65.92529297 66.20751953 C-64.64909065 67.39568558 -63.39232414 68.60510028 -62.15673828 69.83544922 C-58.6188265 73.20713429 -58.6188265 73.20713429 -53.95703125 74.3046875 C-49.7525764 72.44961759 -47.53236922 69.65920952 -44.6875 66.125 C-44.12353516 65.44896729 -43.55957031 64.77293457 -42.97851562 64.07641602 C-41.30409934 62.06268756 -39.65055948 60.03329792 -38 58 C-37.11173466 56.92230453 -36.22250997 55.84539857 -35.33203125 54.76953125 C-31.32258088 49.95518273 -31.32258088 49.95518273 -27.55078125 44.95703125 C-26.3125 43.25 -26.3125 43.25 -24 41 C-21 40.8125 -21 40.8125 -18 42 C-17.154375 42.86625 -16.30875 43.7325 -15.4375 44.625 C-14.2309375 45.800625 -14.2309375 45.800625 -13 47 C-9.65102735 46.86044687 -9.65102735 46.86044687 -7 45 C-6.57124878 43.11349465 -6.19598129 41.21477841 -5.84375 39.3125 C-5.62589844 38.13816406 -5.40804687 36.96382812 -5.18359375 35.75390625 C-4.84521484 33.89572266 -4.84521484 33.89572266 -4.5 32 C-4.27441406 30.79214844 -4.04882812 29.58429687 -3.81640625 28.33984375 C-1.76285076 17.74358497 -1.76285076 17.74358497 -1 7 C-5.91389576 6.71527924 -9.48604333 7.65013091 -14.078125 9.37109375 C-14.73077332 9.61287857 -15.38342163 9.85466339 -16.05584717 10.10377502 C-18.12408849 10.8726059 -20.18692396 11.65492899 -22.25 12.4375 C-23.65071778 12.95985371 -25.05175682 13.48134681 -26.453125 14.00195312 C-32.82085157 16.28041427 -32.82085157 16.28041427 -39 19 C-39.59197613 21.19914497 -39.59197613 21.19914497 -39 24 C-37.2518087 25.88101956 -35.41260709 27.52057426 -33.43359375 29.15625 C-32 31 -32 31 -31.90625 33.265625 C-33.51479096 37.28697739 -36.17107146 40.0700314 -39.0625 43.25 C-39.64797607 43.9087915 -40.23345215 44.56758301 -40.83666992 45.24633789 C-42.54990032 47.17145107 -44.27454169 49.08585182 -46 51 C-47.6051 52.81167352 -49.20946721 54.62399708 -50.8125 56.4375 C-51.87397601 57.62591541 -52.93599745 58.8138461 -54 60 C-57.66060821 59.41463247 -59.54535164 57.916761 -62.25 55.4375 C-62.95640625 54.79683594 -63.6628125 54.15617187 -64.390625 53.49609375 C-65.18726563 52.75552734 -65.18726563 52.75552734 -66 52 C-65.67 50.35 -65.34 48.7 -65 47 C-60.44615385 46.63076923 -60.44615385 46.63076923 -58.1875 48.5 C-57.795625 48.995 -57.40375 49.49 -57 50 C-53.99838433 48.67474769 -52.13134778 47.31475744 -50.01953125 44.8125 C-49.49552734 44.19632813 -48.97152344 43.58015625 -48.43164062 42.9453125 C-47.89732422 42.30335937 -47.36300781 41.66140625 -46.8125 41 C-46.26658203 40.35804687 -45.72066406 39.71609375 -45.15820312 39.0546875 C-42.28408476 35.7265354 -42.28408476 35.7265354 -40 32 C-40.598125 31.7525 -41.19625 31.505 -41.8125 31.25 C-44.51690582 29.70462524 -45.56742238 28.79352635 -47 26 C-47.77801916 21.48410619 -47.74017397 18.16313052 -45.25 14.25 C-40.47390306 10.94347135 -35.42360894 8.99623206 -30 7 C-28.66799561 6.49702393 -28.66799561 6.49702393 -27.30908203 5.98388672 C-24.27562454 4.84402693 -21.23333396 3.73133108 -18.1875 2.625 C-16.7017749 2.06945435 -16.7017749 2.06945435 -15.18603516 1.50268555 C-9.63984743 -0.46445597 -5.73289244 -1.63045565 0 0 Z " fill="#070807" transform="translate(219,12)"/>
<path d="M0 0 C1.58208703 6.70957393 0.14887449 12.36952483 -1.375 19 C-1.84306921 21.10373965 -2.30926446 23.20789726 -2.7734375 25.3125 C-2.99257812 26.29605469 -3.21171875 27.27960937 -3.4375 28.29296875 C-3.9110261 30.5718131 -4.28980944 32.81806688 -4.5859375 35.125 C-5 38 -5 38 -6.25 40 C-8 41 -8 41 -10.3125 41 C-13 40 -13 40 -16.0625 37.4375 C-18.87685648 34.57428502 -18.87685648 34.57428502 -23 35 C-25.03244284 36.91828803 -25.03244284 36.91828803 -26.9375 39.5625 C-27.71480469 40.55765625 -28.49210938 41.5528125 -29.29296875 42.578125 C-29.72013184 43.12533203 -30.14729492 43.67253906 -30.58740234 44.23632812 C-33.21065506 47.51154029 -35.98783272 50.65444952 -38.75 53.8125 C-39.82861847 55.04774636 -40.90675999 56.28340938 -41.984375 57.51953125 C-42.49677734 58.10041504 -43.00917969 58.68129883 -43.53710938 59.27978516 C-44.49336239 60.40424423 -45.41393284 61.56031227 -46.29101562 62.74755859 C-48.31282671 65.45378659 -49.78162614 66.91073133 -52.93359375 68.19921875 C-57.23054583 67.92005371 -59.19934102 65.75745082 -62.0625 62.8125 C-63.20009055 61.70268378 -64.33812469 60.59332209 -65.4765625 59.484375 C-66.05567383 58.90880859 -66.63478516 58.33324219 -67.23144531 57.74023438 C-70.07082368 54.94632369 -73.00464912 52.2575176 -75.9375 49.5625 C-76.45642822 49.07950439 -76.97535645 48.59650879 -77.51000977 48.09887695 C-78.50562339 47.1753512 -79.5071804 46.2581832 -80.51513672 45.34814453 C-81.53845874 44.41904486 -82.54452979 43.47070666 -83.53564453 42.50732422 C-85.86911193 40.34654085 -87.38386299 39.05172964 -90.60546875 38.78125 C-94.06084758 40.539942 -95.46126743 43.23586901 -97.3125 46.5 C-98.18264886 47.96097604 -99.05521576 49.42051357 -99.9296875 50.87890625 C-100.41147461 51.6898877 -100.89326172 52.50086914 -101.38964844 53.33642578 C-104.4713522 58.43366472 -107.71581448 63.42804742 -110.9375 68.4375 C-111.63053223 69.51862061 -112.32356445 70.59974121 -113.03759766 71.71362305 C-118.19204626 79.75385828 -123.36554258 87.78153796 -128.56689453 95.79150391 C-130.22241727 98.34275752 -131.87480929 100.89602859 -133.52734375 103.44921875 C-134.72647201 105.29953781 -135.92568944 107.14979909 -137.125 109 C-137.69436279 109.88018799 -138.26372559 110.76037598 -138.8503418 111.66723633 C-139.37668213 112.47829834 -139.90302246 113.28936035 -140.4453125 114.125 C-140.91469238 114.84945312 -141.38407227 115.57390625 -141.86767578 116.3203125 C-143 118 -143 118 -144 119 C-148.1085547 119.43896923 -150.22491653 119.58102034 -153.58984375 117.05859375 C-154.75193359 115.76115234 -154.75193359 115.76115234 -155.9375 114.4375 C-156.79601562 113.51582031 -157.65453125 112.59414062 -158.5390625 111.64453125 C-159.35117188 110.77183594 -160.16328125 109.89914063 -161 109 C-162.25009737 107.85200221 -163.51943653 106.72437675 -164.8125 105.625 C-169.10210878 101.95694678 -173.22366202 98.11701778 -177.3449707 94.26220703 C-179.78472693 91.992131 -182.21421427 89.83069686 -184.83203125 87.76171875 C-187 86 -187 86 -188 84 C-188.1875 81 -188.1875 81 -188 78 C-186 76 -186 76 -182.90234375 75.8984375 C-177.53706621 76.85072221 -174.25344684 80.89750913 -170.5625 84.625 C-169.12762572 86.03520223 -167.6914338 87.44406505 -166.25390625 88.8515625 C-165.55281738 89.54411133 -164.85172852 90.23666016 -164.12939453 90.95019531 C-161.41867014 93.55960164 -158.6005104 96.02481577 -155.74194336 98.47021484 C-154 100 -154 100 -152.39135742 101.69311523 C-151.08521058 103.20624256 -151.08521058 103.20624256 -149.0859375 103.07421875 C-145.92113819 101.44440637 -144.46158449 98.74693108 -142.625 95.8125 C-142.2014624 95.15685059 -141.7779248 94.50120117 -141.34155273 93.82568359 C-139.88188141 91.55820771 -138.44081859 89.27949719 -137 87 C-135.87437451 85.23524535 -134.74804432 83.47094002 -133.62109375 81.70703125 C-131.21920823 77.94261432 -128.82431118 74.17386203 -126.43359375 70.40234375 C-123.10199927 65.15175084 -119.74517853 59.91805741 -116.33325195 54.71923828 C-113.83992867 50.90549311 -111.41631012 47.05942918 -109.05880737 43.15986633 C-107.65323371 40.8407453 -106.22992871 38.53273838 -104.80535889 36.22525024 C-103.76879708 34.53072857 -102.75645275 32.82146881 -101.74462891 31.11206055 C-96.95660633 23.38508753 -96.95660633 23.38508753 -92.33203125 21.5234375 C-88.23712803 22.10910947 -86.82730834 23.20229954 -83.9375 26.125 C-82.65746094 27.36830078 -82.65746094 27.36830078 -81.3515625 28.63671875 C-80.57554687 29.41660156 -79.79953125 30.19648437 -79 31 C-74.92147203 34.88475175 -71.47873423 36.52495617 -66 38 C-64 41 -64 41 -63.8125 43.3125 C-62.59395789 47.34306235 -59.66995732 49.97886409 -56 52 C-52.96089959 51.95098225 -51.96753842 50.96961282 -49.73828125 48.8828125 C-47.14435979 45.93384543 -44.55545868 42.98230043 -42 40 C-41.13632813 39.01 -40.27265625 38.02 -39.3828125 37 C-34.01862635 31.27059462 -34.01862635 31.27059462 -32 24 C-33.39952532 22.06217129 -33.39952532 22.06217129 -35.4375 20.5 C-38.9535574 17.31182891 -38.9535574 17.31182891 -39.4375 14.0625 C-39.293125 13.381875 -39.14875 12.70125 -39 12 C-32.32271173 8.46639854 -25.46816507 5.7725091 -18.375 3.1875 C-17.26898438 2.76791016 -16.16296875 2.34832031 -15.0234375 1.91601562 C-13.9509375 1.52478516 -12.8784375 1.13355469 -11.7734375 0.73046875 C-10.80841309 0.37364014 -9.84338867 0.01681152 -8.84912109 -0.35083008 C-5.57556524 -1.09670711 -3.24743605 -0.74832222 0 0 Z " fill="#AFE09B" transform="translate(218,19)"/>
<path d="M0 0 C5.6370808 3.20095543 8.89858551 8.19535146 10.859375 14.2890625 C12.2443222 20.25234753 11.712964 24.98088695 8.73828125 30.3671875 C5.39940834 35.01378564 0.69685823 39.21802742 -4.66796875 41.32421875 C-12.00508965 42.22563646 -18.65997992 41.89726382 -24.66796875 37.32421875 C-30.42642496 32.01564193 -32.66324672 26.88643797 -33.16796875 19.07421875 C-33.02858306 12.67990007 -30.7975057 8.14925666 -26.66796875 3.32421875 C-18.29714205 -3.53323815 -9.80097025 -4.29074735 0 0 Z " fill="#C8EDF7" transform="translate(187.66796875,121.67578125)"/>
<path d="M0 0 C5.74048266 4.53723738 9.53656909 9.90907567 12.7890625 16.4140625 C13.63789128 27.67148031 12.68899804 35.72716761 5.6015625 44.7265625 C-0.21555896 51.00655169 -7.63994685 53.10932979 -15.9609375 53.6640625 C-23.50865565 53.53613507 -30.7756011 50.68035734 -36.2109375 45.4140625 C-42.99357634 36.95920625 -45.31406669 29.23589951 -44.2109375 18.4140625 C-42.10813691 10.36801713 -36.66235446 3.23540137 -29.5234375 -1.0234375 C-20.46862055 -5.29457757 -8.4652915 -5.67523288 0 0 Z M-35.5234375 14.5390625 C-38.06296277 19.26712174 -37.84263498 24.19870652 -37.2109375 29.4140625 C-35.16377104 35.9865443 -31.64068175 41.24593053 -25.6484375 44.7890625 C-19.77104995 47.42222101 -12.92816995 47.81890286 -6.875 45.53125 C-1.26977299 42.2883792 2.99833781 37.58852899 6.1640625 31.9765625 C8.00563826 24.42610189 6.5882263 18.10462529 2.7890625 11.4140625 C-1.63441989 6.07228756 -7.42162382 3.17026992 -14.21484375 2.09765625 C-23.72870221 1.52049458 -30.14314763 7.26840052 -35.5234375 14.5390625 Z " fill="#070705" transform="translate(192.2109375,116.5859375)"/>
<path d="M0 0 C1.00349991 -0.0038269 2.00699982 -0.00765381 3.04090881 -0.01159668 C5.16164148 -0.01431674 7.28240763 -0.006949 9.40307617 0.00976562 C12.64513222 0.0311509 15.88496653 0.00997805 19.12695312 -0.015625 C21.18880697 -0.0129813 23.25065943 -0.00785546 25.3125 0 C26.2803392 -0.00809692 27.24817841 -0.01619385 28.24534607 -0.02453613 C32.53879157 0.03510531 35.09058142 0.16880492 38.87329102 2.33789062 C40.72265625 4.53125 40.72265625 4.53125 40.72265625 8.15625 C39.72265625 11.53125 39.72265625 11.53125 36.72265625 13.53125 C34.55981445 13.79867554 34.55981445 13.79867554 32.0234375 13.82177734 C31.07235107 13.83453705 30.12126465 13.84729675 29.14135742 13.86044312 C28.11631104 13.86266876 27.09126465 13.86489441 26.03515625 13.8671875 C24.45408081 13.8771727 24.45408081 13.8771727 22.84106445 13.88735962 C20.61183418 13.89748761 18.38257357 13.90217659 16.15332031 13.90185547 C12.73582323 13.90623313 9.31961263 13.94256473 5.90234375 13.98046875 C3.73828568 13.98633585 1.57422146 13.99030596 -0.58984375 13.9921875 C-1.61489014 14.00655853 -2.63993652 14.02092957 -3.69604492 14.03573608 C-4.64713135 14.02958282 -5.59821777 14.02342957 -6.578125 14.01708984 C-7.41512939 14.01993988 -8.25213379 14.02278992 -9.11450195 14.02572632 C-11.27734375 13.53125 -11.27734375 13.53125 -13.04370117 11.65713501 C-14.59790955 8.97883227 -14.81110021 7.5812869 -14.27734375 4.53125 C-10.76807659 -0.84801798 -5.80180464 -0.04843648 0 0 Z " fill="#F4E065" transform="translate(70.27734375,199.46875)"/>
<path d="M0 0 C1.4217881 -0.01902626 1.4217881 -0.01902626 2.87229919 -0.03843689 C3.89420853 -0.03550125 4.91611786 -0.03256561 5.96899414 -0.02954102 C7.02067276 -0.03478287 8.07235138 -0.04002472 9.15589905 -0.04542542 C11.38094194 -0.05185138 13.60601878 -0.05050124 15.83105469 -0.04199219 C19.23767574 -0.03348839 22.64261723 -0.06222716 26.04907227 -0.09399414 C28.20987905 -0.09560635 30.37068882 -0.09502825 32.53149414 -0.09204102 C33.55137924 -0.10327499 34.57126434 -0.11450897 35.62205505 -0.12608337 C42.64676131 -0.05679035 42.64676131 -0.05679035 45.99072266 2.24365234 C47.31665039 4.40405273 47.31665039 4.40405273 47.31665039 7.46655273 C46.15913131 10.86676502 45.3351747 11.58458233 42.31665039 13.40405273 C40.11621094 13.79173279 40.11621094 13.79173279 37.70336914 13.80810547 C36.34175659 13.82713173 36.34175659 13.82713173 34.95263672 13.84654236 C33.49313599 13.8421389 33.49313599 13.8421389 32.00415039 13.83764648 C30.99827881 13.84288834 29.99240723 13.84813019 28.95605469 13.85353088 C26.83114545 13.85994921 24.70620068 13.85861655 22.58129883 13.85009766 C19.32837796 13.84158343 16.07721047 13.87035949 12.82446289 13.90209961 C10.75935925 13.90371159 8.6942525 13.90313414 6.62915039 13.90014648 C5.6561499 13.91138046 4.68314941 13.92261444 3.68066406 13.93418884 C-3.02775982 13.86486142 -3.02775982 13.86486142 -6.30053711 11.56445312 C-8.17486489 8.63614688 -8.191293 6.81452981 -7.68334961 3.40405273 C-5.41523415 0.35755766 -3.71261643 0.02405215 0 0 Z " fill="#F4E065" transform="translate(63.683349609375,180.595947265625)"/>
<path d="M0 0 C0.92783798 -0.0127597 1.85567596 -0.02551941 2.81163025 -0.03866577 C4.31168358 -0.04200424 4.31168358 -0.04200424 5.84204102 -0.04541016 C6.87152359 -0.05206696 7.90100616 -0.05872375 8.96168518 -0.06558228 C11.13964042 -0.07571052 13.3176267 -0.08039924 15.49560547 -0.08007812 C18.82970219 -0.08445135 22.16247545 -0.12077023 25.49633789 -0.15869141 C27.61156773 -0.16455945 29.72680387 -0.16852893 31.84204102 -0.17041016 C32.84005234 -0.18478119 33.83806366 -0.19915222 34.86631775 -0.21395874 C41.76510461 -0.1683621 41.76510461 -0.1683621 45.03369141 2.16308594 C46.40844727 4.29052734 46.40844727 4.29052734 46.97094727 6.79052734 C46.40844727 9.29052734 46.40844727 9.29052734 44.52392578 11.41357422 C40.03861563 14.11579696 36.14331021 13.86482047 30.99829102 13.82177734 C29.99383438 13.82560425 28.98937775 13.82943115 27.95448303 13.83337402 C25.83553055 13.83609093 23.7165444 13.82874529 21.59765625 13.81201172 C18.35348898 13.79057717 15.11153069 13.81183309 11.86743164 13.83740234 C9.80687988 13.83475947 7.74632949 13.82963533 5.68579102 13.82177734 C4.71592758 13.82987427 3.74606415 13.83797119 2.74681091 13.84631348 C-3.91346494 13.75347131 -3.91346494 13.75347131 -7.23779297 11.48388672 C-8.59155273 9.29052734 -8.59155273 9.29052734 -8.52905273 5.66552734 C-7.13489933 0.6465751 -4.81141773 0.04493906 0 0 Z " fill="#F4E065" transform="translate(64.591552734375,219.70947265625)"/>
<path d="M0 0 C0.92783798 -0.00945648 1.85567596 -0.01891296 2.81163025 -0.02865601 C4.31168358 -0.01954697 4.31168358 -0.01954697 5.84204102 -0.01025391 C7.38626488 -0.01455917 7.38626488 -0.01455917 8.96168518 -0.01895142 C11.1396642 -0.02099359 13.3176615 -0.01545307 15.49560547 -0.00292969 C18.82960076 0.01310498 22.16238069 -0.00276528 25.49633789 -0.02197266 C27.61157494 -0.01998993 29.72681124 -0.01614565 31.84204102 -0.01025391 C33.339058 -0.01936295 33.339058 -0.01936295 34.86631775 -0.02865601 C35.79730789 -0.01919952 36.72829803 -0.00974304 37.6875 0 C38.50451889 0.00238678 39.32153778 0.00477356 40.16331482 0.00723267 C42.99108949 0.48704551 44.36462508 1.3934528 46.40844727 3.38818359 C46.90844727 6.88818359 46.90844727 6.88818359 46.40844727 10.38818359 C43.62416832 13.09509437 41.62875569 13.76487573 37.79516602 13.77636719 C36.88742432 13.78582367 35.97968262 13.79528015 35.04443359 13.80502319 C34.07143311 13.7989505 33.09843262 13.79287781 32.09594727 13.78662109 C30.58713989 13.79092636 30.58713989 13.79092636 29.04785156 13.7953186 C26.92292721 13.79735847 24.79798405 13.79183404 22.6730957 13.77929688 C19.42038997 13.76324254 16.16892685 13.77914862 12.91625977 13.79833984 C10.85115286 13.7963574 8.78604672 13.7925137 6.72094727 13.78662109 C5.74794678 13.79269379 4.77494629 13.79876648 3.77246094 13.80502319 C2.86471924 13.79556671 1.95697754 13.78611023 1.02172852 13.77636719 C-0.17262817 13.77278702 -0.17262817 13.77278702 -1.39111328 13.76913452 C-4.18990643 13.28459365 -5.56612841 12.3617496 -7.59155273 10.38818359 C-8.33892783 4.4091828 -8.33892783 4.4091828 -6.35118103 1.69369507 C-4.09531829 0.02001506 -2.79380852 0.00816959 0 0 Z " fill="#F5E165" transform="translate(37.591552734375,160.61181640625)"/>
<path d="M0 0 C2.49536133 1.84838867 2.49536133 1.84838867 5.08203125 4.41796875 C6.01337891 5.34287109 6.94472656 6.26777344 7.90429688 7.22070312 C8.38116943 7.70804932 8.85804199 8.19539551 9.34936523 8.69750977 C10.80798815 10.18290533 12.29135796 11.63974174 13.77929688 13.09570312 C14.70419922 14.02705078 15.62910156 14.95839844 16.58203125 15.91796875 C17.42999268 16.77156982 18.2779541 17.6251709 19.15161133 18.50463867 C21 21 21 21 21.38818359 23.66186523 C20.82786008 27.03684531 19.21211501 28.48712862 16.8125 30.875 C16.03519531 31.67679688 15.25789063 32.47859375 14.45703125 33.3046875 C12 35 12 35 9.66625977 34.88818359 C4.60918037 33.20357094 1.27865042 28.94345689 -2.40429688 25.22705078 C-3.87428137 23.75072173 -5.36897952 22.30308151 -6.8671875 20.85546875 C-7.7953125 19.92863281 -8.7234375 19.00179687 -9.6796875 18.046875 C-10.53288574 17.19963867 -11.38608398 16.35240234 -12.26513672 15.47949219 C-14 13 -14 13 -13.87451172 10.32446289 C-12.7965359 7.45918993 -11.41320834 5.84664216 -9.25 3.6875 C-8.23679688 2.64142578 -8.23679688 2.64142578 -7.203125 1.57421875 C-4.44324406 -0.39782384 -3.33953422 -0.46668903 0 0 Z " fill="#D8606B" transform="translate(225,176)"/>
<path d="M0 0 C1.65 0.33 3.3 0.66 5 1 C5 2.32 5 3.64 5 5 C6.98 5.66 8.96 6.32 11 7 C11.38218767 8.65614657 11.71395102 10.32457024 12 12 C11 13 11 13 8.27734375 13.09765625 C6.62412109 13.08025391 6.62412109 13.08025391 4.9375 13.0625 C3.28041016 13.04896484 3.28041016 13.04896484 1.58984375 13.03515625 C0.73519531 13.02355469 -0.11945313 13.01195312 -1 13 C-1.33 14.32 -1.66 15.64 -2 17 C-1.09636719 17.45890625 -0.19273437 17.9178125 0.73828125 18.390625 C1.9299477 19.00991623 3.12133966 19.62973585 4.3125 20.25 C5.48425781 20.85328125 6.65601563 21.4565625 7.86328125 22.078125 C10.83217555 23.89717356 12.377374 24.96614646 14 28 C14.86120395 32.77153538 14.70334178 36.79427124 12.25 41 C10 43 10 43 7.875 44 C5.21854193 45.41677764 4.87944941 47.21507688 4 50 C2.35 49.67 0.7 49.34 -1 49 C-1.33 47.68 -1.66 46.36 -2 45 C-3.1446875 44.814375 -3.1446875 44.814375 -4.3125 44.625 C-7 44 -7 44 -10 42 C-10.1875 39.375 -10.1875 39.375 -10 37 C-8.34385343 36.61781233 -6.67542976 36.28604898 -5 36 C-4.67 36.33 -4.34 36.66 -4 37 C-1.93227266 37.19941868 -1.93227266 37.19941868 0.4375 37.1875 C1.24058594 37.20167969 2.04367188 37.21585938 2.87109375 37.23046875 C5.21630633 37.20162356 5.21630633 37.20162356 7 35 C7.16687448 32.41645782 7.16687448 32.41645782 7 30 C5.51886719 29.29423828 5.51886719 29.29423828 4.0078125 28.57421875 C2.713334 27.94574006 1.41907447 27.31681019 0.125 26.6875 C-0.52597656 26.37876953 -1.17695312 26.07003906 -1.84765625 25.75195312 C-5.19676398 24.11192615 -6.89005879 23.16491182 -9 20 C-9.73965025 15.40728797 -9.60961194 11.97537911 -7.125 8 C-5 6 -5 6 -3 5 C-1.9590934 3.35857037 -0.95495674 1.69287785 0 0 Z " fill="#080504" transform="translate(129,165)"/>
<path d="M0 0 C4.11140375 0.75515579 5.47963822 2.33392278 8.0625 5.5625 C9.375 8.375 9.375 8.375 10.0625 10.5625 C11.0525 10.5625 12.0425 10.5625 13.0625 10.5625 C13.24425781 10.00820312 13.42601562 9.45390625 13.61328125 8.8828125 C13.86464844 8.15835938 14.11601562 7.43390625 14.375 6.6875 C14.61863281 5.96820313 14.86226562 5.24890625 15.11328125 4.5078125 C16.0625 2.5625 16.0625 2.5625 19.0625 0.5625 C21.75 0.4375 21.75 0.4375 24.0625 0.5625 C22.56934695 3.06297421 21.06704834 5.5551972 19.52734375 8.02734375 C14.41594683 16.30231625 12.71592233 22.89872765 12.0625 32.5625 C5.74675446 32.23009234 1.59139725 31.12579394 -2.9375 26.5625 C-7.52799177 20.95641271 -7.40769314 14.72538598 -7.46875 7.734375 C-6.67322196 2.98460462 -4.72321027 0.90444452 0 0 Z " fill="#C1825A" transform="translate(119.9375,108.4375)"/>
<path d="M0 0 C1.10408203 0.01353516 1.10408203 0.01353516 2.23046875 0.02734375 C4.0287888 0.05069856 5.82693911 0.08656164 7.625 0.125 C5.68490653 1.5962017 3.74377586 3.04418344 1.73046875 4.4140625 C-6.61078735 10.22406166 -10.84195295 17.0589059 -15.375 26.125 C-21.645 26.125 -27.915 26.125 -34.375 26.125 C-33.21368167 16.83445336 -31.06558631 14.11447697 -24.375 8.125 C-16.59310962 2.46332526 -9.58909384 -0.22542174 0 0 Z " fill="#A77861" transform="translate(124.375,147.875)"/>
<path d="M0 0 C0.80244141 0.00966797 1.60488281 0.01933594 2.43164062 0.02929688 C3.26501953 0.05443359 4.09839844 0.07957031 4.95703125 0.10546875 C6.22450195 0.12577148 6.22450195 0.12577148 7.51757812 0.14648438 C9.60183509 0.18181076 11.68576402 0.23561736 13.76953125 0.29296875 C13.4765625 2.50651042 13.18359375 4.72005208 12.890625 6.93359375 C12.76925776 9.29829749 13.07319868 11.04407245 13.76953125 13.29296875 C12.72152344 13.34904297 12.72152344 13.34904297 11.65234375 13.40625 C10.28722656 13.50486328 10.28722656 13.50486328 8.89453125 13.60546875 C7.53714844 13.69248047 7.53714844 13.69248047 6.15234375 13.78125 C3.40731524 14.08117265 3.40731524 14.08117265 1.76953125 17.29296875 C-1.10546875 17.10546875 -1.10546875 17.10546875 -4.23046875 16.29296875 C-5.54296875 13.79296875 -5.54296875 13.79296875 -6.23046875 11.29296875 C-6.56046875 10.96296875 -6.89046875 10.63296875 -7.23046875 10.29296875 C-7.70136506 3.93586855 -7.70136506 3.93586855 -5.97924805 1.5847168 C-3.80791717 -0.01915193 -2.67658036 -0.05694852 0 0 Z " fill="#F8CC62" transform="translate(37.23046875,219.70703125)"/>
<path d="M0 0 C1.8871875 0.0309375 1.8871875 0.0309375 3.8125 0.0625 C3.8125 0.3925 3.8125 0.7225 3.8125 1.0625 C3.23242188 1.12566406 2.65234375 1.18882813 2.0546875 1.25390625 C-3.52469154 2.12856138 -6.56870997 3.51249838 -9.96875 8.07421875 C-13.40315926 13.67714923 -15.28705479 19.4289222 -14.1875 26.0625 C-12.00380114 33.37509157 -8.72488562 38.80198366 -3.1875 44.0625 C-10.29428137 42.61213646 -14.83805274 39.35172616 -19.0625 33.4375 C-21.68461339 27.9019273 -22.00860852 22.0892771 -21.1875 16.0625 C-18.43622596 8.87466966 -14.1552098 4.25665268 -7.1875 1.0625 C-4.43671116 0.14557039 -2.82801087 -0.04636083 0 0 Z " fill="#9CCDD9" transform="translate(176.1875,118.9375)"/>
<path d="M0 0 C1.0528418 0.01353516 1.0528418 0.01353516 2.12695312 0.02734375 C3.85561525 0.05086296 5.58410145 0.08673287 7.3125 0.125 C6.9825 1.115 6.6525 2.105 6.3125 3.125 C6.3125 6.095 6.3125 9.065 6.3125 12.125 C16.8725 12.125 27.4325 12.125 38.3125 12.125 C38.3125 12.455 38.3125 12.785 38.3125 13.125 C31.8347714 13.22640493 25.35724739 13.29646717 18.87890625 13.34472656 C16.6750524 13.36484419 14.47125193 13.39214172 12.26757812 13.42675781 C9.10012644 13.47526833 5.93338032 13.49796736 2.765625 13.515625 C1.28730194 13.54659271 1.28730194 13.54659271 -0.22088623 13.57818604 C-7.01439552 13.58041541 -7.01439552 13.58041541 -10.34472656 11.32714844 C-11.6875 9.125 -11.6875 9.125 -11.625 5.5 C-9.86769797 -0.82628732 -5.61629849 -0.13634338 0 0 Z " fill="#F4CA60" transform="translate(67.6875,219.875)"/>
<path d="M0 0 C1.52303741 0.00848969 1.52303741 0.00848969 3.07684326 0.01715088 C6.31733501 0.03952747 9.5567179 0.08972745 12.796875 0.140625 C14.99477569 0.16068829 17.19269372 0.17893935 19.390625 0.1953125 C24.7764195 0.23939629 30.16156803 0.30632127 35.546875 0.390625 C35.546875 0.720625 35.546875 1.050625 35.546875 1.390625 C24.986875 1.390625 14.426875 1.390625 3.546875 1.390625 C2.80151901 10.27259101 2.80151901 10.27259101 4.546875 13.390625 C1.94160395 13.49855337 -0.65920811 13.57787378 -3.265625 13.640625 C-4.00361328 13.67414063 -4.74160156 13.70765625 -5.50195312 13.7421875 C-10.97226179 13.84119761 -10.97226179 13.84119761 -13.4375 11.53125 C-14.71266386 8.84359694 -14.96766274 7.33084068 -14.453125 4.390625 C-10.93515739 -1.06760051 -5.8332178 -0.12219346 0 0 Z " fill="#EBC25C" transform="translate(70.453125,199.609375)"/>
<path d="M0 0 C0.79277344 0.01353516 1.58554687 0.02707031 2.40234375 0.04101562 C4.35185564 0.07624777 6.30101626 0.13005179 8.25 0.1875 C7.92 1.1775 7.59 2.1675 7.25 3.1875 C7.18197033 4.91545352 7.16504355 6.64585365 7.1875 8.375 C7.19652344 9.27605469 7.20554687 10.17710937 7.21484375 11.10546875 C7.22644531 11.79253906 7.23804687 12.47960937 7.25 13.1875 C4.47858283 13.26839542 1.70952181 13.32794062 -1.0625 13.375 C-1.84818359 13.40013672 -2.63386719 13.42527344 -3.44335938 13.45117188 C-4.20068359 13.46083984 -4.95800781 13.47050781 -5.73828125 13.48046875 C-6.43477783 13.4961792 -7.13127441 13.51188965 -7.84887695 13.52807617 C-10.37033015 13.07637112 -11.22604129 12.21740484 -12.75 10.1875 C-13.1875 6.6875 -13.1875 6.6875 -12.75 3.1875 C-9.26283297 -0.8333232 -4.89978234 -0.15845067 0 0 Z " fill="#F4C75F" transform="translate(42.75,199.8125)"/>
<path d="M0 0 C0.70189453 0.01353516 1.40378906 0.02707031 2.12695312 0.04101562 C3.85579829 0.07629818 5.58424765 0.13010417 7.3125 0.1875 C7.3125 4.1475 7.3125 8.1075 7.3125 12.1875 C17.8725 12.1875 28.4325 12.1875 39.3125 12.1875 C39.3125 12.5175 39.3125 12.8475 39.3125 13.1875 C32.8347714 13.28890493 26.35724739 13.35896717 19.87890625 13.40722656 C17.6750524 13.42734419 15.47125193 13.45464172 13.26757812 13.48925781 C10.10012644 13.53776833 6.93338032 13.56046736 3.765625 13.578125 C2.28730194 13.60909271 2.28730194 13.60909271 0.77911377 13.64068604 C-6.03505979 13.64292219 -6.03505979 13.64292219 -9.31347656 11.35449219 C-11.17348641 8.42104382 -11.19510077 6.5956766 -10.6875 3.1875 C-8.15630729 -0.85485253 -4.27025809 -0.15549959 0 0 Z " fill="#E5BC5A" transform="translate(66.6875,180.8125)"/>
<path d="M0 0 C0.70189453 0.01353516 1.40378906 0.02707031 2.12695312 0.04101562 C3.85579829 0.07629818 5.58424765 0.13010417 7.3125 0.1875 C7.126875 1.26 6.94125 2.3325 6.75 3.4375 C6.08025571 7.25960322 6.08025571 7.25960322 7.3125 11.1875 C23.1525 11.6825 23.1525 11.6825 39.3125 12.1875 C39.3125 12.5175 39.3125 12.8475 39.3125 13.1875 C32.8347119 13.2635544 26.35703892 13.31610154 19.87890625 13.35229492 C17.67508644 13.36738291 15.47129665 13.38785576 13.26757812 13.41381836 C10.10018503 13.45020058 6.93318889 13.46722632 3.765625 13.48046875 C2.28730194 13.50369453 2.28730194 13.50369453 0.77911377 13.52738953 C-0.1415387 13.52761612 -1.06219116 13.52784271 -2.01074219 13.52807617 C-3.22319611 13.53806892 -3.22319611 13.53806892 -4.46014404 13.54826355 C-7.28791732 13.09025076 -8.64932237 12.18152919 -10.6875 10.1875 C-11.41435006 4.37269954 -11.41435006 4.37269954 -9.640625 1.48046875 C-6.615967 -0.52185485 -3.49369873 -0.12722152 0 0 Z " fill="#F7CD61" transform="translate(40.6875,160.8125)"/>
<path d="M0 0 C-0.33 0.99 -0.66 1.98 -1 3 C-2.16769838 15.50166522 -2.16769838 15.50166522 2.62109375 26.6171875 C4.29991452 28.30076414 5.94978867 29.78505995 8 31 C8 29.35 8 27.7 8 26 C8.33 26 8.66 26 9 26 C9 27.98 9 29.96 9 32 C2.68425446 31.66759234 -1.47110275 30.56329394 -6 26 C-10.59049177 20.39391271 -10.47019314 14.16288598 -10.53125 7.171875 C-9.46506216 0.80610644 -6.04739706 -0.54976337 0 0 Z " fill="#A4755E" transform="translate(123,109)"/>
<path d="M0 0 C0.75732422 0.00966797 1.51464844 0.01933594 2.29492188 0.02929688 C3.08060547 0.05443359 3.86628906 0.07957031 4.67578125 0.10546875 C5.87170898 0.12577148 5.87170898 0.12577148 7.09179688 0.14648438 C9.05758092 0.18179786 11.02301707 0.23560428 12.98828125 0.29296875 C12.98828125 4.25296875 12.98828125 8.21296875 12.98828125 12.29296875 C10.21686408 12.37386417 7.44780306 12.43340937 4.67578125 12.48046875 C3.89009766 12.50560547 3.10441406 12.53074219 2.29492188 12.55664062 C1.53759766 12.56630859 0.78027344 12.57597656 0 12.5859375 C-0.69649658 12.60164795 -1.39299316 12.6173584 -2.1105957 12.63354492 C-4.61851782 12.1842639 -5.48308697 11.29781346 -7.01171875 9.29296875 C-7.65608125 4.13806877 -7.65608125 4.13806877 -5.73901367 1.6237793 C-3.63487662 0.0026272 -2.62701096 -0.05925589 0 0 Z " fill="#FDCF63" transform="translate(37.01171875,180.70703125)"/>
<path d="M0 0 C0.99 0.33 1.98 0.66 3 1 C1.948125 1.7425 0.89625 2.485 -0.1875 3.25 C-5.8340513 8.03754248 -8.65853994 15.81844613 -10 23 C-10.94385878 35.87361487 -9.10545905 46.47750679 -1.3671875 57.0625 C-0.01904037 58.97301707 1.00902771 60.88592577 2 63 C-6.46070751 58.46010817 -11.41929843 49.93565675 -14.33984375 40.984375 C-16.48458854 31.28860566 -15.64656107 21.80543642 -11 13 C-7.80282739 8.17827797 -4.12451536 4.04311045 0 0 Z " fill="#EFC45E" transform="translate(153,110)"/>
<path d="M0 0 C1.15224028 0.92961422 2.29659176 1.8690125 3.4375 2.8125 C4.07558594 3.33457031 4.71367187 3.85664063 5.37109375 4.39453125 C7 6 7 6 8 9 C8.56589844 9.26941406 9.13179687 9.53882813 9.71484375 9.81640625 C13.00619406 11.52115693 15.14654005 14.19549957 17.5625 16.9375 C21.6720299 21.57186057 21.6720299 21.57186057 26 26 C25.34 26.66 24.68 27.32 24 28 C17.55476375 27.74060689 13.8598069 22.52989305 9.59570312 18.22705078 C8.12571863 16.75072173 6.63102048 15.30308151 5.1328125 13.85546875 C4.2046875 12.92863281 3.2765625 12.00179687 2.3203125 11.046875 C1.46711426 10.19963867 0.61391602 9.35240234 -0.26513672 8.47949219 C-2 6 -2 6 -1.83251953 3.24707031 C-1 1 -1 1 0 0 Z " fill="#CD4650" transform="translate(213,183)"/>
<path d="M0 0 C0.66 0 1.32 0 2 0 C2 3.96 2 7.92 2 12 C1.34 12 0.68 12 0 12 C-1.95143115 9.13024831 -1.98930952 7.87385237 -1.6875 4.3125 C-1 1 -1 1 0 0 Z " fill="#F3DD64" transform="translate(48,201)"/>
<path d="M0 0 C0.66 0 1.32 0 2 0 C2 3.96 2 7.92 2 12 C1.01 11.67 0.02 11.34 -1 11 C-2.23076923 4.6 -2.23076923 4.6 -1.0625 1.5625 C-0.711875 1.046875 -0.36125 0.53125 0 0 Z " fill="#F2DD64" transform="translate(48,181)"/>
<path d="M0 0 C0.99 0.33 1.98 0.66 3 1 C2.75 2.875 2.75 2.875 2 5 C-0.0625 6.25 -0.0625 6.25 -2 7 C-2.66 6.01 -3.32 5.02 -4 4 C-3.01 3.67 -2.02 3.34 -1 3 C-0.67 2.01 -0.34 1.02 0 0 Z " fill="#3F4646" transform="translate(210,171)"/>
<path d="M0 0 C0.33 0 0.66 0 1 0 C1.33 3.3 1.66 6.6 2 10 C1.01 9.67 0.02 9.34 -1 9 C-1.09765625 2.84765625 -1.09765625 2.84765625 -1 1 C-0.67 0.67 -0.34 0.34 0 0 Z " fill="#EFDB63" transform="translate(48,222)"/>
</svg>
